<?xml version="1.0" encoding="iso-8859-1"?>
<!-- Uploaded to: SVG Repo, www.svgrepo.com, Generator: SVG Repo Mixer Tools -->
<svg height="800px" width="800px" version="1.1" id="Layer_1" xmlns="http://www.w3.org/2000/svg" xmlns:xlink="http://www.w3.org/1999/xlink" 
	 viewBox="0 0 512 512" xml:space="preserve">
<path style="fill:#3A5D74;" d="M383.997,43.647c-97.792,28.348-169.284,118.571-169.284,225.5c0,23.043,3.32,45.313,9.508,66.352
	l9.974,27.431c23.44,53.723,66.403,96.974,119.922,120.793C442.231,445.709,503.916,358.064,503.916,256
	C503.916,165.915,455.863,87.059,383.997,43.647z"/>
<path style="opacity:0.1;fill:#231F20;enable-background:new    ;" d="M252.712,369.411l-10.625-29.222
	c-6.592-22.414-10.129-46.136-10.129-70.685c0-91.394,49.032-171.322,122.22-214.951
	c-82.167,36.542-139.467,118.869-139.467,214.594c0,23.043,3.32,45.313,9.508,66.352l9.974,27.431
	c22.76,52.166,63.931,94.454,115.297,118.67C306.94,454.951,272.978,415.856,252.712,369.411z"/>
<path style="fill:#CAE9F7;" d="M256.001,512c-68.379,0-132.667-26.629-181.019-74.981S0,324.379,0,256S26.628,123.333,74.982,74.981
	C123.334,26.628,187.619,0,256.001,0c68.379,0,132.666,26.628,181.02,74.981C485.372,123.333,512,187.62,512,256
	s-26.628,132.667-74.981,181.019C388.667,485.371,324.379,512,256.001,512z M256.001,16.168
	C123.756,16.168,16.168,123.756,16.168,256s107.588,239.832,239.833,239.832c132.244,0,239.83-107.588,239.83-239.832
	S388.245,16.168,256.001,16.168z"/>
</svg>